# xmcd
#
# Track frame offsets: 
#        150
#        13562
#        27625
#        39188
#        50904
#        62398
#        73399
#        82882
#        96552
#        107637
#        122694
#        137379
#
# Disc length: 2017 seconds
#
# Revision: 1
# Processed by: cddbd v1.5.2PL0 Copyright (c) Steve Scherf et al.
# Submitted via: ExactAudioCopy v1.0b3
#
DISCID=a007df0c
DTITLE=Glen Campbell - Platinum
DYEAR=2008
DGENRE=Country
TTITLE0=Gentle On My Mind
TTITLE1=Wichita Lineman
TTITLE2=Hey Little One
TTITLE3=Dreams of the Everyday Housewife
TTITLE4=True Grit
TTITLE5=Try a Little Kindness
TTITLE6=Let It Be Me (with Bobbie Gentry)
TTITLE7=Honey, Come Back
TTITLE8=It's Only Make Believe
TTITLE9=Houston (I'm Comin' to See You)
TTITLE10=Rhinestone Cowboy
TTITLE11=Country Boy (You Got Your Feet in L.A.)
EXTD=
EXTT0=
EXTT1=
EXTT2=
EXTT3=
EXTT4=
EXTT5=
EXTT6=
EXTT7=
EXTT8=
EXTT9=
EXTT10=
EXTT11=
PLAYORDER=
